<svg width="16" height="16" viewBox="0 0 16 16" fill="none" xmlns="http://www.w3.org/2000/svg">
<path d="M8.17376 3.16499C8.12724 3.12048 8.06533 3.09564 8.00095 3.09564C7.93657 3.09564 7.87466 3.12048 7.82814 3.16499L2.07501 8.66093C2.05058 8.6843 2.03114 8.71238 2.01787 8.74348C2.00461 8.77458 1.99779 8.80805 1.99782 8.84186L1.99689 14C1.99689 14.2652 2.10224 14.5196 2.28978 14.7071C2.47732 14.8946 2.73167 15 2.99689 15H6.00001C6.13262 15 6.2598 14.9473 6.35357 14.8535C6.44733 14.7598 6.50001 14.6326 6.50001 14.5V10.25C6.50001 10.1837 6.52635 10.1201 6.57324 10.0732C6.62012 10.0263 6.68371 9.99999 6.75001 9.99999H9.25001C9.31632 9.99999 9.37991 10.0263 9.42679 10.0732C9.47367 10.1201 9.50001 10.1837 9.50001 10.25V14.5C9.50001 14.6326 9.55269 14.7598 9.64646 14.8535C9.74023 14.9473 9.8674 15 10 15H13.0019C13.2671 15 13.5215 14.8946 13.709 14.7071C13.8965 14.5196 14.0019 14.2652 14.0019 14V8.84186C14.0019 8.80805 13.9951 8.77458 13.9818 8.74348C13.9686 8.71238 13.9491 8.6843 13.9247 8.66093L8.17376 3.16499Z" fill="#767676"/>
<path d="M15.341 7.62969L13.0035 5.39344V2C13.0035 1.86739 12.9508 1.74021 12.857 1.64645C12.7632 1.55268 12.6361 1.5 12.5035 1.5H11.0034C10.8708 1.5 10.7437 1.55268 10.6499 1.64645C10.5561 1.74021 10.5034 1.86739 10.5034 2V3L8.69345 1.26937C8.52407 1.09812 8.2722 1 8.00001 1C7.72876 1 7.47751 1.09813 7.30814 1.26969L0.661262 7.62906C0.466887 7.81656 0.442512 8.125 0.619387 8.32813C0.663803 8.3794 0.718187 8.42109 0.77923 8.45068C0.840273 8.48027 0.906698 8.49712 0.974462 8.50022C1.04223 8.50332 1.10991 8.4926 1.1734 8.46871C1.23689 8.44482 1.29485 8.40825 1.34376 8.36125L7.82814 2.165C7.87466 2.12049 7.93657 2.09565 8.00095 2.09565C8.06533 2.09565 8.12724 2.12049 8.17376 2.165L14.6588 8.36125C14.7543 8.45286 14.8822 8.50285 15.0146 8.50028C15.1469 8.4977 15.2728 8.44276 15.3647 8.3475C15.5566 8.14875 15.5406 7.82063 15.341 7.62969Z" fill="#767676"/>
</svg>
