<svg width="326" height="131" viewBox="0 0 326 131" fill="none" xmlns="http://www.w3.org/2000/svg">
<rect width="325" height="131" transform="translate(0.5)" fill="#CCCCCC"/>
<path d="M275.528 30.5354V10.4741H219.819L210.648 77.4688L201.587 10.4741H181.496L183.741 28.3635C181.426 23.7785 173.204 10.4741 155.102 10.4741C154.982 10.4662 134.988 10.4741 134.988 10.4741L134.904 108.124L120.264 10.4741L93.9498 10.4662L78.8022 111.642L78.8107 10.4741H53.6219L44.5446 67.3072L35.7021 10.4741H10.5094V120.47H30.3493V67.4513L39.3752 120.47H49.9208L58.8193 67.4513V120.47H97.064L99.3767 103.551H114.774L117.087 120.47L154.638 120.494H154.665V120.47H154.712V84.7695L159.31 84.0987L168.84 120.494H188.264L188.256 120.47H188.311L175.806 77.8225C182.138 73.1203 189.295 61.1993 187.391 49.7898V49.7859C187.414 49.9339 199.197 120.543 199.197 120.543L222.294 120.471L238.076 20.7779V120.471H275.527V100.691H257.753V75.4685H275.527V55.3862H257.753V30.5354H275.528ZM101.713 86.1129L107.165 39.0825L112.813 86.1129H101.713ZM159.374 64.3963C157.85 65.1319 156.264 65.5 154.712 65.5039V30.1274C154.736 30.1274 154.772 30.1235 154.811 30.1235C156.358 30.1117 167.943 30.5911 167.943 47.6179C167.943 56.5245 164.004 62.1418 159.374 64.3963ZM315.495 100.672V120.445H278.955V10.4584H298.632V100.672H315.495Z" fill="white"/>
</svg>
